# AST/ASF file generated using VICON BodyLanguage
# -----------------------------------------------
:version 1.10
:name VICON
:units
  mass 1.0
  length 0.45
  angle deg
:documentation
   .ast/.asf automatically generated from VICON data using
   VICON BodyBuilder and BodyLanguage model FoxedUp or BRILLIANT.MOD
:root
   order TX TY TZ RX RY RZ
   axis XYZ
   position 0 0 0  
   orientation 0 0 0 
:bonedata
  begin
     id 1 
     name lhipjoint
     direction 0.662698 -0.695252 0.27831 
     length 2.53073 
     axis 0 0 0  XYZ
  end
  begin
     id 2 
     name lfemur
     direction 0.34202 -0.939693 0  
     length 7.16147  
     axis 0 0 20  XYZ
    dof rx ry rz
    limits (-160.0 20.0)
           (-70.0 70.0)
           (-60.0 70.0)
  end
  begin
     id 3 
     name ltibia
     direction 0.34202 -0.939693 0   
     length 7.63967   
     axis 0 0 20   XYZ
    dof rx
    limits (-10.0 170.0)
  end
  begin
     id 4 
     name lfoot
     direction 0.0938457 -0.257721 0.961651   
     length 1.89793   
     axis -90 7.62852e-016 20   XYZ
    dof rx rz
    limits (-45.0 90.0)
           (-70.0 20.0)
  end
  begin
     id 5 
     name ltoes
     direction -0.00116841 -0.0030592 0.999995   
     length 0.955649   
     axis -90 7.62852e-016 20   XYZ
    dof rx
    limits (-90.0 20.0)
  end
  begin
     id 6 
     name rhipjoint
     direction -0.649445 -0.705948 0.282592   
     length 2.49238  
     axis 0 0 0  XYZ 
  end
  begin
     id 7 
     name rfemur
     direction -0.34202 -0.939693 0   
     length 6.90728   
     axis 0 0 -20   XYZ
    dof rx ry rz
    limits (-160.0 20.0)
           (-70.0 70.0)
           (-70.0 60.0)
  end
  begin
     id 8 
     name rtibia
     direction -0.34202 -0.939693 0   
     length 7.72868   
     axis 0 0 -20   XYZ
    dof rx
    limits (-10.0 170.0)
 end
 begin
     id 9 
     name rfoot
     direction -0.0920068 -0.252865 0.963117   
     length 1.97476  
     axis -90 -7.62852e-016 -20   XYZ
    dof rx rz
    limits (-45.0 90.0)
           (-20.0 70.0)
  end
  begin
     id 10 
     name rtoes
     direction 0.000391322 0.00230649 0.999997   
     length 0.992641   
     axis -90 -7.62852e-016 -20   XYZ
    dof rx
    limits (-90.0 20.0)
  end
  begin
     id 11 
     name lowerback
     direction -0.00875327 0.998321 -0.0572635   
     length 2.20024   
     axis 0 0 0   XYZ
    dof rx ry rz
    limits (-20.0 45.0)
           (-30.0 30.0)
           (-30.0 30.0)
  end
  begin
     id 12 
     name upperback
     direction 0.00753931 0.999972 -0.000360425   
     length 2.20538   
     axis 0 0 0   XYZ
    dof rx ry rz
    limits (-20.0 45.0)
           (-30.0 30.0)
           (-30.0 30.0)
  end
  begin
     id 13 
     name thorax
     direction 0.0117767 0.999601 0.0256663   
     length 2.21508   
     axis 0 0 0   XYZ
    dof rx ry rz
    limits (-20.0 45.0)
           (-30.0 30.0)
           (-30.0 30.0)
  end
  begin
     id 14 
     name lowerneck
     direction 0.060228 0.994909 0.0807986   
     length 1.7607   
     axis 0 0 0   XYZ
    dof rx ry rz
    limits (-20.0 45.0)
           (-30.0 30.0)
           (-30.0 30.0)
  end
  begin
     id 15 
     name upperneck
     direction -0.0563647 0.959594 -0.275685   
     length 1.75612   
     axis 0 0 0   XYZ
    dof rx ry rz
    limits (-20.0 45.0)
           (-30.0 30.0)
           (-30.0 30.0)
  end
  begin
     id 16
     name head
     direction -0.0161544 0.99458 -0.102714  
     length 1.79288  
     axis 0 0 0   XYZ
    dof rx ry rz
    limits (-20.0 45.0)
           (-30.0 30.0)
           (-30.0 30.0)
  end
  begin
     id 17 
     name lclavicle
     direction 0.93913 0.332189 -0.087669  
     length 3.52087  
     axis 0 0 0   XYZ
    dof ry rz
    limits (-20.0 10.0)
           (0.0 20.0)
  end
  begin
     id 18 
     name lhumerus
     direction 1 -4.48974e-011 -2.70836e-027   
     length 5.35289   
     axis -180 -30 -90   XYZ
    dof rx ry rz
    limits (-60.0 90.0)
           (-90.0 90.0)
           (-90.0 90.0)
  end
  begin
     id 19
     name lradius
     direction 1 -4.48961e-011 -9.76021e-027   
     length 3.27727   
     axis -180 -30 -90   XYZ
    dof rx
    limits (-10.0 170.0)
  end
  begin
     id 20
     name lwrist
     direction 1 -4.49103e-011 -2.23668e-026   
     length 1.63864   
     axis 1.44924e-014 90 90   XYZ
    dof ry
    limits (-180.0 0.0)
 end
  begin
     id 21 
     name lhand
     direction 1 3.0697e-005 0.000161777   
     length 0.54443   
     axis 2.85318e-014 90 90   XYZ
    dof rx rz
    limits (-90.0 90.0)
           (-45.0 45.0)
  end
  begin
     id 22 
     name lfingers
     direction 1 -4.49027e-011 -8.9447e-026   
     length 0.438912   
     axis 5.70628e-014 90 90   XYZ
    dof rx
    limits (0.0 90.0)
  end
  begin
     id 23
     name lthumb
     direction 0.707058 2.6516e-005 0.707156   
     length 0.630274   
     axis -90 45 -3.53137e-014   XYZ
    dof rx rz
    limits (-45.0 45.0)
           (-45.0 45.0)
  end
  begin
     id 24 
     name rclavicle
     direction -0.95274 0.284984 -0.105215   
     length 3.43401  
     axis 0 0 0   XYZ 
    dof ry rz
    limits (-10.0 20.0)
           (-20.0 0.0)
  end
  begin
     id 25 
     name rhumerus
     direction -0.999999 -0.000575019 -0.00106829  
     length 5.52077   
     axis -180 30 90   XYZ
    dof rx ry rz
    limits (-90.0 60.0)
           (-90.0 90.0)
           (-90.0 90.0)
  end
  begin
     id 26 
     name rradius
     direction -1 -4.4879e-011 -6.35415e-027   
     length 3.32364   
     axis -180 30 90   XYZ
    dof rx
    limits (-10.0 170.0)
  end
  begin
     id 27 
     name rwrist
     direction -1 -4.49048e-011 -9.98542e-027   
     length 1.66182   
     axis 6.32482e-015 -90 -90   XYZ
    dof ry
    limits (-180.0 0.0)
  end
  begin
     id 28
     name rhand
     direction -1 -4.48978e-011 -1.99771e-026   
     length 0.732235   
     axis 1.27479e-014 -90 -90   XYZ
    dof rx rz
    limits (-90.0 90.0)
           (-45.0 45.0)
  end
  begin
     id 29
     name rfingers
     direction -1 -4.49144e-011 -3.99245e-026   
     length 0.590347   
     axis 2.5496e-014 -90 -90   XYZ
    dof rx
    limits (0.0 90.0)
  end
  begin
     id 30
     name rthumb
     direction -0.707107 -6.35121e-011 0.707107   
     length 0.847624   
     axis -90 -45 -2.82974e-014   XYZ
    dof rx rz
    limits (-45.0 45.0)
           (-45.0 45.0)
  end
:hierarchy
  begin
    root lhipjoint rhipjoint lowerback
    lhipjoint lfemur
    lfemur ltibia
    ltibia lfoot
    lfoot ltoes
    rhipjoint rfemur
    rfemur rtibia
    rtibia rfoot
    rfoot rtoes
    lowerback upperback
    upperback thorax
    thorax lowerneck lclavicle rclavicle
    lowerneck upperneck
    upperneck head
    lclavicle lhumerus
    lhumerus lradius
    lradius lwrist
    lwrist lhand lthumb
    lhand lfingers
    rclavicle rhumerus
    rhumerus rradius
    rradius rwrist
    rwrist rhand rthumb
    rhand rfingers
  end

#!OML:ASF G:\Work\Work\Patient Classification 1\Elijah\terrain1\Elijah.ASF
:FULLY-SPECIFIED
:DEGREES
3565
root 25.6791 20.8147 3.06161 726.578 -20.4159 9.023
lowerback 4.03946 -1.4322 -4.36302
upperback 0.95713 -2.07606 0.987568
thorax -1.08683 -1.03044 3.56362
lowerneck -17.9894 1.07712 6.41826
upperneck 30.6166 -0.401047 -1.14205
head 13.3092 0.366866 -1.63349
rclavicle -2.46493e-014 -2.06736e-014
rhumerus -43.8735 -4.81178 -82.2919
rradius 29.5476
rwrist 2.52519
rhand -12.8147 22.9279
rfingers 7.12502
rthumb 13.2718 -6.62958
lclavicle -2.46493e-014 -2.06736e-014
lhumerus -34.5764 -13.2119 91.2066
lradius 57.8903
lwrist -3.48351
lhand -6.83887 24.2676
lfingers 7.12502
lthumb 19.0258 53.3571
rfemur -53.3711 -8.11404 21.4062
rtibia 49.847
rfoot -13.5586 -16.6519
rtoes -4.3189
lfemur 4.12041 -1.46205 -31.8072
ltibia 21.2236
lfoot -6.92813 1.52702
ltoes -22.2447
3566
root 25.6322 20.8342 3.18566 726.722 -21.0843 9.06745
lowerback 4.15085 -1.69783 -4.52015
upperback 0.497829 -2.43958 1.54178
thorax -1.55758 -1.18993 4.25626
lowerneck -18.2881 1.61232 6.21338
upperneck 31.2171 0.570146 -1.63371
head 13.672 0.706654 -1.64085
rclavicle -7.87187e-014 -4.77083e-015
rhumerus -44.144 -2.88433 -82.1245
rradius 29.392
rwrist 2.23665
rhand -12.8744 22.6223
rfingers 7.12502
rthumb 13.2143 -6.93891
lclavicle -7.87187e-014 -4.77083e-015
lhumerus -35.5483 -11.4617 91.7859
lradius 57.8581
lwrist -3.74824
lhand -6.97834 23.5724
lfingers 7.12502
lthumb 18.8917 52.6749
rfemur -53.2652 -7.62305 21.3485
rtibia 50.1136
rfoot -13.5631 -17.0684
rtoes -5.75626
lfemur 3.79128 -0.660188 -31.8303
ltibia 22.3254
lfoot -5.31595 1.43959
ltoes -23.2294
3567
root 25.5852 20.8679 3.30641 726.908 -21.6951 8.98047
lowerback 4.27661 -1.54898 -3.91485
upperback 0.510719 -2.21904 1.49244
thorax -1.66319 -1.08082 3.85784
lowerneck -19.0651 1.57286 6.55267
upperneck 31.1856 0.44868 -1.94739
head 13.823 0.651644 -1.84587
rclavicle 5.32743e-014 3.33958e-014
rhumerus -43.7067 -3.18026 -82.0741
rradius 29.1783
rwrist 2.41734
rhand -12.6932 22.6034
rfingers 7.12502
rthumb 13.3889 -6.94643
lclavicle 5.32743e-014 3.33958e-014
lhumerus -35.6253 -11.7356 91.834
lradius 57.9197
lwrist -3.55888
lhand -7.32196 23.5747
lfingers 7.12502
lthumb 18.5611 52.7092
rfemur -53.0135 -7.2817 21.4502
rtibia 50.1755
rfoot -13.4606 -17.0421
rtoes -5.74949
lfemur 3.20897 -0.214713 -31.6434
ltibia 23.3824
lfoot -3.57945 1.21191
ltoes -18.5888
3568
root 25.5323 20.9025 3.43541 726.876 -22.4588 9.12731
lowerback 4.74608 -1.80413 -4.3255
upperback 0.006895 -2.59117 2.02584
thorax -2.3685 -1.23305 4.69508
lowerneck -17.1522 1.85695 6.10397
upperneck 30.4081 1.30959 -2.41947
head 13.1185 0.895675 -1.79962
rclavicle 4.69132e-014 7.95139e-015
rhumerus -44.2753 -0.640463 -82.2043
rradius 29.5965
rwrist 1.66845
rhand -12.2977 22.3117
rfingers 7.12502
rthumb 13.7701 -7.21258
lclavicle 4.69132e-014 7.95139e-015
lhumerus -36.9212 -10.0384 92.3349
lradius 58.2328
lwrist -3.29675
lhand -6.58328 24.327
lfingers 7.12502
lthumb 19.2716 53.3921
rfemur -52.5804 -6.90713 21.2993
rtibia 50.164
rfoot -13.5609 -16.6861
rtoes -4.69281
lfemur 2.76418 0.361602 -31.7233
ltibia 24.3571
lfoot -1.94708 1.10635
ltoes -13.2956
3569
root 25.4713 20.9312 3.56281 726.713 -23.2895 9.3448
lowerback 5.38977 -1.98625 -4.9188
upperback -0.467818 -2.88622 2.54589
thorax -3.13474 -1.3344 5.63913
lowerneck -15.9694 2.01465 5.62677
upperneck 30.0739 1.88317 -2.82454
head 12.7529 1.0362 -1.78172
rclavicle -2.82274e-014 4.45278e-014
rhumerus -44.8233 1.73639 -82.3273
rradius 30.1541
rwrist 1.01981
rhand -11.8082 21.8761
rfingers 7.12502
rthumb 14.2419 -7.61563
lclavicle -2.82274e-014 4.45278e-014
lhumerus -38.209 -8.38774 92.7762
lradius 58.6051
lwrist -2.79544
lhand -5.66097 24.6127
lfingers 7.12502
lthumb 20.1582 53.5869
rfemur -52.0501 -6.44189 21.133
rtibia 50.1439
rfoot -13.6755 -16.4523
rtoes -4.43218
lfemur 2.38301 1.04016 -31.8499
ltibia 25.3168
lfoot -0.249166 1.0538
ltoes -10.8193
3570
root 25.4101 20.9551 3.68459 726.521 -23.8103 9.63113
lowerback 5.01419 -1.85821 -4.66628
upperback 0.0861244 -2.68666 2.28085
thorax -2.39863 -1.27688 5.16971
lowerneck -19.4578 2.03193 7.08204
upperneck 31.2 1.49932 -3.71454
head 13.9856 0.916204 -2.47088
rclavicle 9.93923e-015 1.59028e-015
rhumerus -43.5335 0.93361 -82.3343
rradius 30.0188
rwrist 1.51835
rhand -11.2731 21.8677
rfingers 7.12502
rthumb 14.7574 -7.58697
lclavicle 9.93923e-015 1.59028e-015
lhumerus -37.5879 -8.9967 92.4749
lradius 58.6524
lwrist -1.98757
lhand -6.47476 23.9685
lfingers 7.12502
lthumb 19.3759 53.0231
rfemur -51.5282 -6.25936 20.9394
rtibia 50.1857
rfoot -13.7566 -16.3052
rtoes -4.80545
lfemur 1.86964 1.62834 -31.9451
ltibia 26.6024
lfoot 1.25326 0.567747
ltoes -15.1054
3571
root 25.3513 20.9794 3.81807 726.192 -24.3384 9.83438
lowerback 5.2351 -1.66136 -4.16627
upperback 0.291663 -2.41102 1.90371
thorax -2.37998 -1.15077 4.47983
lowerneck -19.2871 2.09185 7.44882
upperneck 30.7771 1.36173 -3.3907
head 13.7606 0.941045 -2.41645
rclavicle 3.81667e-014 -7.95139e-015
rhumerus -42.9816 -0.0646854 -82.4073
rradius 29.9553
rwrist 1.95606
rhand -10.8845 22.2836
rfingers 7.12502
rthumb 15.1317 -7.14323
lclavicle 3.81667e-014 -7.95139e-015
lhumerus -37.5019 -9.91829 92.205
lradius 58.5183
lwrist -1.22033
lhand -7.98439 23.4247
lfingers 7.12502
lthumb 17.9239 52.6187
rfemur -50.8028 -6.24029 20.8301
rtibia 50.2945
rfoot -13.8354 -16.0577
rtoes -5.82054
lfemur 1.48818 2.27115 -31.9862
ltibia 28.2517
lfoot 2.52635 -0.0262827
ltoes -24.5457
3572
root 25.2837 21.0041 3.9195 726.432 -24.6233 9.72925
lowerback 5.0495 -1.55691 -3.68656
upperback 0.414167 -2.24037 1.75006
thorax -2.19202 -1.07802 4.02809
lowerneck -18.8221 1.81063 6.95656
upperneck 29.7563 0.869737 -2.48221
head 13.1881 0.780828 -2.03246
rclavicle 2.0276e-014 -6.36111e-015
rhumerus -42.4647 -0.809567 -82.4455
rradius 30.131
rwrist 2.16125
rhand -10.6509 22.4668
rfingers 7.12502
rthumb 15.3568 -6.94294
lclavicle 2.0276e-014 -6.36111e-015
lhumerus -37.3126 -10.5579 92.0004
lradius 58.4859
lwrist -0.0496396
lhand -8.55831 23.2957
lfingers 7.12502
lthumb 17.3716 52.5394
rfemur -50.6032 -6.04557 21.0406
rtibia 50.4119
rfoot -14.0643 -16.0993
rtoes -6.22759
lfemur 0.400748 2.86132 -31.6012
ltibia 30.128
lfoot 3.96891 -0.617201
ltoes -11.5958
3573
root 25.2138 21.0262 4.00947 726.595 -24.7298 10.0576
lowerback 4.83653 -1.59027 -3.85526
upperback 0.416443 -2.28851 1.67423
thorax -2.06229 -1.10401 4.03934
lowerneck -18.2395 1.72141 6.60992
upperneck 28.9957 0.753341 -1.98846
head 12.7413 0.746222 -1.7873
rclavicle 1.43125e-014 -1.43125e-014
rhumerus -42.1455 -0.896782 -82.4964
rradius 30.5709
rwrist 1.87018
rhand -10.6919 22.1492
rfingers 7.12502
rthumb 15.3173 -7.2635
lclavicle 1.43125e-014 -1.43125e-014
lhumerus -37.1662 -10.7374 91.8447
lradius 58.5543
lwrist 1.66323
lhand -8.77148 23.2491
lfingers 7.12502
lthumb 17.1664 52.5108
rfemur -50.5854 -5.96325 20.7898
rtibia 50.5779
rfoot -14.4989 -16.1148
rtoes -5.74367
lfemur -1.1009 3.10426 -31.6036
ltibia 32.3324
lfoot 4.99152 -0.791015
ltoes -19.1544
3574
root 25.1488 21.0473 4.13383 726.248 -25.2821 10.679
lowerback 4.809 -1.51813 -4.27769
upperback 0.443607 -2.21654 1.54808
thorax -2.01491 -1.06662 4.14097
lowerneck -17.9422 1.65063 6.50088
upperneck 28.7887 0.664074 -1.84486
head 12.5895 0.710148 -1.7249
rclavicle -2.26615e-014 2.22639e-014
rhumerus -42.1263 -0.273963 -82.6807
rradius 31.2024
rwrist 0.987991
rhand -11.0672 22.1567
rfingers 7.12502
rthumb 14.9557 -7.28335
lclavicle -2.26615e-014 2.22639e-014
lhumerus -37.0286 -10.8659 91.7383
lradius 58.3044
lwrist 2.9262
lhand -8.54747 23.3428
lfingers 7.12502
lthumb 17.382 52.5855
rfemur -50.1338 -5.87865 20.2195
rtibia 50.7505
rfoot -14.9565 -15.802
rtoes -5.3941
lfemur -2.12202 3.3834 -32.0276
ltibia 34.4908
lfoot 6.45779 -1.46355
ltoes -28.6793
3575
root 25.0815 21.0666 4.21952 726.448 -25.1416 11.1047
lowerback 4.70419 -1.61223 -4.61529
upperback 0.365079 -2.35847 1.44338
thorax -2.01366 -1.13332 4.22849
lowerneck -18.3373 1.59697 6.78942
upperneck 28.9621 0.437139 -1.78285
head 12.7345 0.65279 -1.78926
rclavicle -4.92986e-014 -2.06736e-014
rhumerus -41.8133 -0.148081 -82.8949
rradius 31.6375
rwrist 0.415539
rhand -11.3622 22.5741
rfingers 7.12502
rthumb 14.6716 -6.88684
lclavicle -4.92986e-014 -2.06736e-014
lhumerus -36.5509 -11.2622 91.4785
lradius 57.8751
lwrist 3.65825
lhand -8.29165 23.4798
lfingers 7.12502
lthumb 17.6282 52.7006
rfemur -50.2118 -6.2127 19.9669
rtibia 50.9293
rfoot -15.4131 -15.7571
rtoes -4.98183
lfemur -3.77961 3.28004 -32.0585
ltibia 36.7083
lfoot 8.185 -2.2357
ltoes -34.7652
